<svg xmlns="http://www.w3.org/2000/svg" fill="#ffffff" viewBox="-16 284 1849 597" role="img" aria-label="Boğaziçi Diş"><path d="M301.0,865.7C300.7,865.4 295.8,864.6 290.0,864.0C267.0,861.6 243.8,855.4 224.0,846.4C197.5,834.4 171.9,816.0 154.4,796.4C147.9,789.1 135.0,772.6 135.0,771.5C135.0,771.2 133.2,768.1 131.0,764.5C121.2,748.5 114.8,732.6 108.9,710.1C107.3,703.8 106.2,698.5 106.4,698.3C106.8,697.9 114.0,708.4 114.0,709.4C114.0,710.4 126.6,730.7 132.7,739.5C152.3,767.9 177.9,793.6 202.3,809.4C215.3,817.8 234.4,827.9 237.4,828.0C238.0,828.0 239.4,828.7 240.4,829.5C241.5,830.3 243.2,831.0 244.3,831.0C245.3,831.0 247.4,831.6 248.8,832.4C252.2,834.1 259.4,836.3 268.5,838.5C272.4,839.4 277.8,840.8 280.6,841.6C283.4,842.4 287.5,843.0 289.8,843.0C292.0,843.0 296.7,843.6 300.2,844.4C309.3,846.5 346.2,847.4 375.0,846.1C388.4,845.6 399.6,845.3 399.9,845.5C400.9,846.5 397.8,848.7 392.8,850.5C389.9,851.5 386.4,853.0 385.0,853.7C383.6,854.4 382.0,855.0 381.3,855.0C380.6,855.0 378.6,855.6 376.8,856.4C372.1,858.4 356.8,861.8 344.2,863.7C333.7,865.2 302.0,866.7 301.0,865.7zM440.1,858.5C439.0,856.5 438.0,854.3 438.0,853.7C437.9,853.0 436.8,850.7 435.5,848.5C434.1,846.3 432.7,843.8 432.3,843.0C430.6,839.2 421.6,828.5 411.2,817.7C404.9,811.2 400.0,805.7 400.4,805.3C400.7,804.9 403.4,804.7 406.3,804.8C424.2,805.5 437.0,812.9 444.0,826.6C447.2,832.8 447.5,834.3 447.5,841.5C447.4,848.8 445.1,859.0 443.0,861.3C442.6,861.8 441.3,860.5 440.1,858.5zM126.5,804.3C120.4,802.7 112.1,793.7 84.7,758.5C67.9,736.9 44.0,700.9 32.5,680.0C29.0,673.6 16.2,647.6 13.4,641.2C12.6,639.5 11.4,636.5 10.6,634.8C7.9,628.6 4.2,618.5 3.0,614.2C2.4,611.9 1.5,610.0 1.0,610.0C-0.2,610.0 -0.4,377.3 0.8,376.8C1.2,376.6 3.5,372.7 5.9,368.0C16.8,346.6 27.7,332.5 41.9,321.7C53.3,313.1 57.9,310.9 78.0,304.5C87.7,301.4 125.1,301.8 138.0,305.0C152.6,308.7 165.8,312.5 168.0,313.5C172.5,315.7 178.1,318.0 179.0,318.0C180.0,318.0 192.6,323.9 217.8,336.2C229.8,342.0 236.6,346.0 237.7,347.6C239.2,349.9 239.2,350.2 237.1,352.4C235.0,354.6 210.1,367.9 205.5,369.3C204.4,369.6 200.8,371.0 197.5,372.4C190.7,375.3 181.5,375.9 177.2,373.6C150.9,359.9 135.2,355.5 115.0,356.2C102.4,356.7 96.4,358.0 87.2,362.2C77.4,366.8 64.6,379.6 59.9,389.5C59.4,390.6 58.6,392.2 58.0,393.0C54.0,399.3 47.1,419.0 44.4,431.5C39.0,457.6 38.7,461.4 38.7,504.0C38.7,539.6 39.0,546.5 40.9,561.0C43.4,579.7 44.6,588.1 46.2,596.0C46.7,599.0 47.5,603.8 47.9,606.5C48.3,609.2 49.2,613.5 49.9,616.0C50.6,618.5 51.6,622.1 52.1,624.0C55.4,637.1 56.3,640.8 56.8,643.5C57.0,645.1 57.9,647.4 58.6,648.5C59.4,649.6 60.0,651.2 60.0,652.0C60.0,654.3 65.8,671.9 67.5,675.2C68.3,676.6 69.0,678.5 69.0,679.4C69.0,680.2 69.6,682.4 70.4,684.2C71.2,686.0 73.3,691.1 75.0,695.5C76.8,699.9 79.5,706.2 81.1,709.5C83.5,714.7 86.9,722.3 90.1,729.5C90.6,730.6 91.4,732.2 92.0,733.0C92.5,733.8 95.2,739.2 98.0,745.0C108.0,765.5 122.0,789.5 128.8,797.8C134.1,804.3 133.5,806.0 126.5,804.3zM1814.5,558.4C1808.6,549.3 1773.3,513.2 1762.3,504.9C1759.1,502.6 1756.0,500.1 1755.5,499.5C1753.6,497.4 1738.5,486.3 1729.5,480.4C1708.0,466.2 1683.6,452.8 1666.0,445.5C1662.4,444.0 1659.1,442.4 1658.5,441.9C1658.0,441.4 1657.0,441.0 1656.2,441.0C1655.4,441.0 1653.4,440.4 1651.7,439.6C1620.2,426.0 1559.2,410.9 1524.5,408.0C1519.0,407.6 1512.5,406.7 1510.0,406.1C1504.3,404.7 1470.0,403.0 1448.7,403.0C1425.0,403.0 1389.7,404.8 1380.6,406.5C1376.3,407.3 1370.2,408.0 1367.1,408.0C1361.5,408.0 1351.3,409.4 1328.5,413.2C1321.9,414.3 1313.8,415.6 1310.5,416.1C1307.2,416.6 1301.3,417.7 1297.5,418.5C1293.7,419.4 1287.6,420.7 1284.0,421.5C1263.4,425.9 1249.0,429.3 1245.7,430.6C1243.7,431.4 1241.1,432.0 1240.0,432.0C1238.9,432.0 1232.3,433.6 1225.3,435.6C1218.3,437.6 1210.2,439.8 1207.5,440.4C1204.8,441.1 1201.8,441.9 1201.0,442.3C1200.2,442.6 1195.9,443.8 1191.5,445.0C1187.1,446.2 1179.0,448.5 1173.5,450.2C1168.0,451.8 1161.5,453.7 1159.0,454.4C1156.5,455.2 1150.5,457.0 1145.5,458.5C1120.9,465.9 1108.4,469.6 1101.5,471.5C1098.2,472.4 1093.2,474.0 1090.5,475.1C1087.7,476.1 1084.8,477.0 1084.0,477.0C1083.2,477.0 1077.3,478.7 1071.0,480.6C1064.7,482.6 1057.2,484.8 1054.5,485.6C1051.8,486.3 1047.2,487.6 1044.5,488.4C1040.1,489.8 1035.4,491.1 1013.3,497.3C1010.5,498.1 1007.6,499.1 1006.9,499.6C1006.2,500.0 1003.8,500.7 1001.5,501.1C999.3,501.5 992.5,503.2 986.5,505.0C980.5,506.8 972.8,508.8 969.5,509.5C953.6,513.0 949.9,513.9 946.8,514.8C945.0,515.4 939.2,516.6 934.0,517.5C928.8,518.4 923.5,519.6 922.3,520.1C921.0,520.5 917.0,521.2 913.3,521.6C909.5,522.0 905.4,522.7 904.0,523.2C902.6,523.7 898.1,524.6 894.0,525.1C889.9,525.6 882.2,526.7 877.0,527.5C871.8,528.4 862.1,529.7 855.5,530.5C844.3,531.9 838.2,532.6 817.0,535.1C807.1,536.2 792.4,537.5 772.0,539.1C749.0,540.9 680.4,540.6 654.5,538.7C631.4,536.9 607.7,534.7 592.5,532.9C587.5,532.3 580.1,531.4 576.0,530.9C571.9,530.4 566.5,529.6 564.0,529.1C561.5,528.6 555.2,527.4 550.0,526.5C544.8,525.6 537.4,524.3 533.5,523.5C529.6,522.7 524.0,521.6 521.0,521.0C504.6,517.7 501.0,517.0 495.5,515.4C492.2,514.5 487.9,513.4 486.0,513.1C484.1,512.7 480.9,511.8 479.0,511.2C477.1,510.6 470.8,508.7 465.0,507.0C449.5,502.3 444.9,500.8 441.0,499.5C439.1,498.8 434.8,497.5 431.5,496.5C420.8,493.4 416.9,491.8 417.3,490.6C417.9,488.9 431.6,488.7 439.0,490.4C442.6,491.2 449.8,492.6 455.0,493.5C460.2,494.4 466.7,495.6 469.5,496.2C472.2,496.8 477.2,497.6 480.5,498.0C483.8,498.4 488.5,499.2 491.0,499.8C493.5,500.5 500.0,501.7 505.5,502.6C511.0,503.4 517.2,504.5 519.4,505.0C526.8,506.6 528.0,504.5 528.0,489.3C528.0,479.0 525.3,465.9 522.9,464.4C522.4,464.1 522.0,463.3 522.0,462.5C522.0,459.9 514.5,448.5 508.6,442.2C495.9,428.6 478.9,420.2 458.0,417.0C450.8,415.9 425.0,415.9 418.0,417.0C406.6,418.8 386.3,424.0 379.5,426.9C378.4,427.4 374.4,428.8 370.5,430.0C362.0,432.6 347.1,437.9 345.0,439.0C344.1,439.4 341.9,440.1 340.0,440.5C338.1,440.9 336.1,441.6 335.5,442.0C334.5,442.7 305.4,452.1 296.5,454.6C267.3,462.6 233.3,466.3 206.7,464.2C185.8,462.5 178.7,461.5 165.7,458.5C147.4,454.2 136.0,450.2 136.0,448.2C136.0,446.7 136.5,446.7 165.5,446.9C185.0,447.1 192.0,446.7 203.0,445.1C210.4,444.1 217.8,442.7 219.3,442.1C220.9,441.5 223.3,441.0 224.8,441.0C226.2,441.0 229.2,440.4 231.5,439.6C233.7,438.9 238.2,437.5 241.5,436.5C244.8,435.5 250.7,433.6 254.5,432.3C258.4,430.9 262.9,429.5 264.5,429.0C266.1,428.5 274.0,425.8 282.0,423.0C290.0,420.2 297.9,417.5 299.5,417.0C305.0,415.4 327.5,407.8 329.3,406.8C330.3,406.3 336.1,404.4 342.3,402.4C348.5,400.5 355.1,398.3 357.0,397.6C361.3,395.9 368.1,394.1 374.0,393.0C376.5,392.6 379.6,391.7 381.0,391.2C383.5,390.2 391.1,388.6 408.4,385.4C421.3,383.1 458.9,383.0 468.0,385.4C478.7,388.2 481.2,389.1 489.0,392.8C499.3,397.7 504.4,401.2 512.3,408.9C523.4,419.6 531.4,432.8 536.8,449.5C541.9,465.3 542.0,465.3 545.1,492.5C546.4,503.7 547.5,505.7 552.9,506.6C554.9,506.9 558.5,507.8 560.9,508.6C563.4,509.4 566.5,510.0 567.8,510.0C569.2,510.0 572.6,510.6 575.4,511.4C584.3,513.9 613.6,519.0 618.9,519.0C620.8,519.0 626.0,519.6 630.4,520.4C652.9,524.4 731.1,524.4 764.5,520.5C771.1,519.7 781.5,518.6 787.5,518.0C793.5,517.3 801.0,516.5 804.0,516.0C819.6,513.8 826.2,512.8 833.0,511.4C837.2,510.7 842.1,510.0 844.0,510.0C845.8,510.0 849.9,509.4 852.9,508.6C856.0,507.8 866.4,505.7 876.0,504.0C885.6,502.3 894.9,500.4 896.5,499.8C898.1,499.2 901.8,498.4 904.5,498.0C907.2,497.6 911.5,496.8 914.0,496.1C927.6,492.6 940.1,489.7 944.2,489.0C946.8,488.5 949.8,487.7 950.9,487.1C952.0,486.5 954.3,486.0 956.0,486.0C957.7,486.0 960.0,485.5 961.1,485.0C963.3,483.8 984.5,478.1 990.8,477.0C993.2,476.6 995.6,475.8 996.2,475.2C996.9,474.5 998.4,474.0 999.6,474.0C1000.8,474.0 1004.2,473.3 1007.1,472.4C1010.1,471.5 1014.8,470.2 1017.5,469.4C1020.2,468.6 1024.9,467.3 1027.8,466.5C1030.6,465.7 1035.4,464.4 1038.2,463.6C1041.1,462.8 1047.3,461.0 1052.0,459.6C1056.7,458.2 1062.1,456.7 1064.0,456.4C1065.9,456.0 1068.3,455.3 1069.2,454.8C1070.2,454.3 1072.9,453.6 1075.2,453.1C1077.6,452.6 1080.8,451.7 1082.5,451.1C1084.2,450.5 1088.2,449.3 1091.5,448.4C1094.8,447.5 1099.8,446.1 1102.5,445.3C1105.2,444.6 1109.9,443.3 1112.8,442.5C1115.6,441.7 1120.4,440.3 1123.2,439.5C1131.6,437.2 1135.9,436.0 1145.7,433.5C1150.7,432.2 1155.7,430.7 1156.8,430.1C1158.0,429.5 1159.9,429.0 1161.2,429.0C1162.5,429.0 1165.5,428.3 1168.0,427.5C1172.9,425.9 1185.8,422.6 1195.9,420.3C1199.4,419.6 1203.1,418.5 1204.1,418.0C1205.1,417.4 1207.2,417.0 1208.9,417.0C1210.6,417.0 1213.7,416.4 1215.7,415.6C1217.8,414.9 1223.1,413.5 1227.5,412.5C1231.9,411.6 1238.0,410.2 1241.1,409.4C1244.1,408.6 1248.0,408.0 1249.6,408.0C1251.2,408.0 1253.8,407.3 1255.4,406.5C1256.9,405.7 1259.4,405.0 1260.9,405.0C1262.4,405.0 1266.0,404.4 1269.0,403.6C1272.0,402.9 1279.2,401.5 1285.0,400.6C1290.8,399.6 1298.0,398.2 1301.1,397.4C1304.1,396.6 1308.6,396.0 1311.1,396.0C1313.5,396.0 1318.0,395.3 1321.0,394.5C1324.0,393.7 1328.8,393.0 1331.5,393.0C1334.2,393.0 1340.5,392.4 1345.5,391.6C1360.9,389.2 1426.4,385.0 1449.0,385.0C1476.5,385.0 1529.2,389.8 1552.5,394.5C1556.3,395.3 1561.8,396.3 1564.5,396.8C1569.1,397.7 1578.3,399.9 1587.0,402.1C1588.9,402.6 1593.0,403.5 1596.0,404.2C1599.0,405.0 1602.5,406.1 1603.7,406.8C1604.9,407.4 1606.7,408.0 1607.7,408.0C1609.5,408.0 1624.5,413.0 1635.0,417.0C1638.0,418.2 1641.6,419.5 1643.0,420.0C1654.4,423.7 1694.0,443.2 1710.5,453.1C1712.2,454.1 1715.5,456.1 1718.0,457.5C1723.5,460.6 1724.3,461.1 1734.7,468.2C1739.3,471.4 1743.3,474.0 1743.5,474.0C1743.7,474.0 1746.9,476.3 1750.6,479.1C1776.4,498.6 1797.9,520.6 1813.2,543.1C1817.5,549.4 1818.0,550.8 1818.0,555.6C1818.0,561.6 1817.1,562.3 1814.5,558.4zM166.0,418.5C166.0,417.7 166.7,417.0 167.5,417.0C168.3,417.0 170.6,416.1 172.7,415.1C179.7,411.5 188.2,408.0 190.0,408.0C191.0,408.0 192.3,407.3 193.0,406.5C193.7,405.7 195.0,405.0 196.0,405.0C197.6,405.0 200.8,403.7 214.0,397.9C216.5,396.8 219.8,395.3 221.5,394.6C228.0,391.7 257.5,376.7 261.1,374.4C263.2,373.1 265.2,372.0 265.4,372.0C265.8,372.0 298.2,353.1 303.0,350.1C306.5,347.8 318.6,340.6 320.4,339.6C321.6,339.0 324.4,337.2 326.8,335.7C329.1,334.2 332.9,331.9 335.1,330.7C341.9,327.0 342.7,326.5 344.1,325.3C347.9,322.3 370.3,311.7 378.8,309.0C384.2,307.3 389.9,305.4 391.5,304.8C393.1,304.2 397.4,303.4 401.0,303.0C404.6,302.5 409.5,301.7 412.0,301.0C421.1,298.7 451.2,301.0 459.5,304.6C461.1,305.3 465.4,306.9 468.8,308.1C472.3,309.3 476.7,311.4 478.6,312.7C480.5,313.9 482.3,315.0 482.6,315.0C484.3,315.0 495.8,324.0 503.8,331.6C513.3,340.5 522.2,351.4 527.6,360.5C529.2,363.2 531.0,366.4 531.7,367.5C533.0,369.7 533.1,369.9 534.9,375.0C537.9,383.4 537.4,384.7 532.2,381.2C530.7,380.2 521.9,374.7 512.5,369.1C503.1,363.5 490.6,355.8 484.5,352.1C464.4,339.7 449.6,335.5 429.0,336.3C401.3,337.3 386.9,342.1 337.0,366.9C320.2,375.3 305.8,382.5 305.0,383.0C302.1,384.6 286.0,392.0 280.8,394.1C277.9,395.2 274.7,396.6 273.7,397.1C272.8,397.6 267.2,399.6 261.2,401.6C255.3,403.5 249.7,405.6 248.6,406.1C247.6,406.7 244.7,407.5 242.1,408.0C239.6,408.5 232.8,410.0 227.0,411.4C212.6,414.9 207.6,415.9 199.5,417.1C195.7,417.6 189.8,418.5 186.5,419.0C183.2,419.5 177.2,420.0 173.2,420.0C167.5,420.0 166.0,419.7 166.0,418.5z"/><path d="M584.4 682.544 586.248 680.696Q596.16 680.696 603.636 684.392Q611.112 688.088 615.2280000000001 694.472Q619.344 700.856 619.344 709.088Q619.344 717.992 614.976 725.216Q610.608 732.44 602.9639999999999 736.556Q595.32 740.672 585.912 740.672Q580.5360000000001 740.672 573.732 740.168Q566.928 739.664 561.216 739.664Q555.672 739.664 550.548 739.832Q545.424 740.0 541.224 740.0Q540.888 740.0 540.888 738.992Q540.888 737.984 541.224 737.984Q547.272 737.984 550.4639999999999 737.144Q553.656 736.304 554.832 733.784Q556.008 731.264 556.008 726.392V648.608Q556.008 643.736 554.9159999999999 641.3Q553.824 638.864 550.7159999999999 637.94Q547.608 637.016 541.56 637.016Q541.056 637.016 541.056 636.008Q541.056 635.0 541.56 635.0Q545.592 635.0 550.6320000000001 635.252Q555.672 635.504 561.216 635.504Q565.5840000000001 635.504 571.296 635.0Q577.008 634.496 581.04 634.496Q590.952 634.496 597.168 637.4359999999999Q603.384 640.376 606.3240000000001 645.4159999999999Q609.264 650.456 609.264 656.672Q609.264 666.248 602.292 672.9680000000001Q595.32 679.688 584.4 682.544ZM577.344 637.016Q573.48 637.016 571.1279999999999 637.688Q568.776 638.36 567.768 640.796Q566.76 643.232 566.76 648.944V681.872L561.384 680.528Q566.76 680.864 570.288 680.9480000000001Q573.816 681.032 574.32 681.032Q587.256 681.032 592.8 674.396Q598.344 667.76 598.344 658.016Q598.344 652.136 596.244 647.348Q594.144 642.56 589.608 639.788Q585.072 637.016 577.344 637.016ZM583.392 737.648Q595.992 737.648 601.788 731.1800000000001Q607.5840000000001 724.712 607.5840000000001 713.288Q607.5840000000001 700.688 600.192 692.624Q592.8 684.56 579.528 684.56Q575.328 684.392 570.876 684.56Q566.424 684.728 561.888 685.4L566.76 683.552V726.392Q566.76 730.424 567.9359999999999 732.944Q569.112 735.464 572.7239999999999 736.556Q576.336 737.648 583.392 737.648ZM561.384 680.528Z M692.5920000000001 742.016Q680.4960000000001 742.016 670.6680000000001 737.732Q660.84 733.448 653.868 725.8879999999999Q646.8960000000001 718.328 643.116 708.5Q639.336 698.672 639.336 687.584Q639.336 673.976 644.628 663.7280000000001Q649.9200000000001 653.48 658.6560000000001 646.6759999999999Q667.392 639.872 677.808 636.512Q688.224 633.152 698.4720000000001 633.152Q710.904 633.152 720.732 637.604Q730.5600000000001 642.056 737.4480000000001 649.616Q744.336 657.176 747.9480000000001 666.752Q751.5600000000001 676.328 751.5600000000001 686.408Q751.5600000000001 698.168 746.856 708.248Q742.152 718.328 734.004 725.8879999999999Q725.856 733.448 715.1880000000001 737.732Q704.5200000000001 742.016 692.5920000000001 742.016ZM698.4720000000001 738.488Q709.8960000000001 738.488 718.9680000000001 733.028Q728.0400000000001 727.568 733.416 716.9839999999999Q738.792 706.4 738.792 691.112Q738.792 675.3199999999999 732.9960000000001 663.14Q727.2 650.96 716.532 643.988Q705.864 637.016 691.416 637.016Q672.768 637.016 662.436 649.028Q652.104 661.04 652.104 681.704Q652.104 693.632 655.3800000000001 703.9639999999999Q658.6560000000001 714.296 664.8720000000001 722.108Q671.0880000000001 729.92 679.6560000000001 734.204Q688.224 738.488 698.4720000000001 738.488Z M831.192 742.016Q812.3760000000001 742.016 798.9360000000001 734.876Q785.4960000000001 727.736 778.44 715.64Q771.384 703.544 771.384 688.76Q771.384 676.328 776.172 666.164Q780.96 656.0 789.6120000000001 648.608Q798.264 641.216 809.94 637.184Q821.6160000000001 633.152 835.392 633.152Q843.288 633.152 850.848 634.664Q858.408 636.1759999999999 863.2800000000001 639.2Q864.792 640.208 864.96 640.88Q865.128 641.552 865.296 643.064L867.312 661.88Q867.312 662.216 866.388 662.4680000000001Q865.464 662.72 865.296 662.048Q861.6 649.784 852.0240000000001 643.316Q842.4480000000001 636.848 828.168 636.848Q806.832 636.848 795.3240000000001 649.1959999999999Q783.816 661.544 783.816 682.712Q783.816 699.344 790.5360000000001 712.028Q797.2560000000001 724.712 808.8480000000001 731.9359999999999Q820.44 739.16 835.224 739.16Q843.456 739.16 848.328 737.6479999999999Q853.2 736.136 855.384 731.768Q857.5680000000001 727.4 857.5680000000001 718.832Q857.5680000000001 710.768 856.5600000000001 706.988Q855.552 703.208 851.52 702.0319999999999Q847.488 700.856 838.5840000000001 700.856Q837.576 700.856 837.576 699.512Q837.576 698.168 838.416 698.168Q849.0 698.84 857.7360000000001 698.924Q866.4720000000001 699.008 876.048 698.504Q876.888 698.504 876.888 699.6800000000001Q876.888 700.856 876.048 700.856Q872.1840000000001 700.688 870.4200000000001 701.948Q868.6560000000001 703.208 868.152 707.4079999999999Q867.648 711.608 867.648 720.512Q867.648 726.056 867.984 728.744Q868.32 731.432 868.5720000000001 732.692Q868.8240000000001 733.952 868.8240000000001 735.296Q868.8240000000001 736.304 868.488 736.64Q868.152 736.976 866.9760000000001 737.312Q858.408 739.328 849.0840000000001 740.672Q839.76 742.016 831.192 742.016ZM829.344 624.0799999999999Q822.1200000000001 624.0799999999999 817.6680000000001 619.376Q813.2160000000001 614.6719999999999 812.0400000000001 606.1039999999999Q811.8720000000001 605.4319999999999 812.796 605.348Q813.72 605.2639999999999 813.888 605.5999999999999Q814.8960000000001 610.136 819.3480000000001 613.496Q823.8000000000001 616.856 829.344 616.856Q834.72 616.856 839.172 613.496Q843.6240000000001 610.136 844.6320000000001 605.5999999999999Q844.8000000000001 605.2639999999999 845.7240000000002 605.348Q846.6480000000001 605.4319999999999 846.4800000000001 606.1039999999999Q845.3040000000001 614.6719999999999 840.9360000000001 619.376Q836.5680000000001 624.0799999999999 829.344 624.0799999999999Z M922.248 684.392 924.768 680.864H959.3760000000001L960.552 684.392ZM1003.8960000000001 737.984Q1004.5680000000001 737.984 1004.5680000000001 738.992Q1004.5680000000001 740.0 1003.8960000000001 740.0Q999.0240000000001 740.0 993.9840000000002 739.664Q988.9440000000001 739.328 984.24 739.328Q979.032 739.328 975.1680000000001 739.664Q971.3040000000001 740.0 966.6 740.0Q965.9280000000001 740.0 965.9280000000001 738.992Q965.9280000000001 737.984 966.6 737.984Q975.504 737.984 977.6880000000001 735.38Q979.8720000000001 732.776 976.5120000000001 725.552L939.216 646.76L943.416 641.552L910.8240000000001 718.664Q906.624 728.912 910.32 733.4480000000001Q914.0160000000001 737.984 924.936 737.984Q925.7760000000001 737.984 925.7760000000001 738.992Q925.7760000000001 740.0 924.936 740.0Q919.8960000000001 740.0 915.6960000000001 739.664Q911.4960000000001 739.328 905.1120000000001 739.328Q899.0640000000001 739.328 895.452 739.664Q891.84 740.0 886.6320000000001 740.0Q885.96 740.0 885.96 738.992Q885.96 737.984 886.6320000000001 737.984Q891.168 737.984 894.528 736.22Q897.888 734.456 900.828 730.004Q903.768 725.552 907.296 717.152L942.744 633.488Q943.08 632.984 943.9200000000001 632.984Q944.7600000000001 632.984 944.9280000000001 633.488L984.576 716.984Q988.44 725.216 991.464 729.836Q994.488 734.456 997.4280000000001 736.22Q1000.368 737.984 1003.8960000000001 737.984Z M1017.0000000000001 737.816 1083.3600000000001 639.2Q1084.0320000000002 638.36 1083.864 638.108Q1083.6960000000001 637.856 1082.5200000000002 637.856Q1066.2240000000002 637.856 1055.4720000000002 638.108Q1044.72 638.36 1038.252 639.2Q1031.784 640.04 1028.172 642.14Q1024.5600000000002 644.24 1022.5440000000001 647.6Q1020.5280000000001 650.96 1018.5120000000001 656.504Q1018.344 657.008 1017.336 656.7560000000001Q1016.3280000000001 656.504 1016.4960000000001 656.168L1023.2160000000001 629.96Q1023.3840000000001 629.624 1024.392 629.792Q1025.4 629.96 1025.2320000000002 630.296Q1024.728 633.3199999999999 1026.576 634.16Q1028.4240000000002 635.0 1034.808 635.0Q1044.8880000000001 635.0 1059.5040000000001 635.0Q1074.1200000000001 635.0 1096.1280000000002 635.0Q1096.968 635.0 1097.304 635.756Q1097.64 636.512 1097.304 637.184L1031.784 735.464Q1031.112 736.304 1031.2800000000002 736.556Q1031.448 736.808 1032.624 736.808Q1046.5680000000002 736.808 1057.5720000000001 736.808Q1068.576 736.808 1075.4640000000002 736.808Q1083.0240000000001 736.808 1088.064 734.7919999999999Q1093.104 732.776 1096.1280000000002 728.4079999999999Q1099.152 724.04 1100.3280000000002 717.32Q1100.496 716.984 1101.3360000000002 716.984Q1102.1760000000002 716.984 1102.1760000000002 717.32L1099.824 738.656Q1099.824 739.16 1099.488 739.748Q1099.152 740.336 1098.3120000000001 740.336Q1085.88 740.168 1072.02 740.0840000000001Q1058.16 740.0 1044.3000000000002 740.0Q1030.44 740.0 1018.0080000000002 740.0Q1017.3360000000001 740.0 1016.9160000000002 739.244Q1016.4960000000001 738.488 1017.0000000000001 737.816Z M1144.5120000000002 726.392Q1144.5120000000002 731.264 1145.5200000000002 733.784Q1146.5280000000002 736.304 1149.6360000000002 737.144Q1152.7440000000001 737.984 1158.7920000000001 737.984Q1159.296 737.984 1159.296 738.992Q1159.296 740.0 1158.7920000000001 740.0Q1154.7600000000002 740.0 1149.804 739.832Q1144.8480000000002 739.664 1138.8000000000002 739.664Q1133.256 739.664 1128.132 739.832Q1123.0080000000003 740.0 1118.976 740.0Q1118.4720000000002 740.0 1118.4720000000002 738.992Q1118.4720000000002 737.984 1118.976 737.984Q1125.0240000000001 737.984 1128.2160000000001 737.144Q1131.4080000000001 736.304 1132.4160000000002 733.784Q1133.4240000000002 731.264 1133.4240000000002 726.392V648.608Q1133.4240000000002 643.736 1132.4160000000002 641.3Q1131.4080000000001 638.864 1128.2160000000001 637.94Q1125.0240000000001 637.016 1118.976 637.016Q1118.4720000000002 637.016 1118.4720000000002 636.008Q1118.4720000000002 635.0 1118.976 635.0Q1123.0080000000003 635.0 1128.132 635.252Q1133.256 635.504 1138.8000000000002 635.504Q1144.8480000000002 635.504 1149.8880000000001 635.252Q1154.928 635.0 1158.7920000000001 635.0Q1159.296 635.0 1159.296 636.008Q1159.296 637.016 1158.7920000000001 637.016Q1152.7440000000001 637.016 1149.6360000000002 638.024Q1146.5280000000002 639.032 1145.5200000000002 641.552Q1144.5120000000002 644.072 1144.5120000000002 648.944ZM1138.968 620.216Q1135.44 620.216 1133.508 618.284Q1131.576 616.352 1131.576 612.992Q1131.576 609.8 1133.508 607.8679999999999Q1135.44 605.9359999999999 1138.968 605.9359999999999Q1142.328 605.9359999999999 1144.176 607.8679999999999Q1146.0240000000001 609.8 1146.0240000000001 612.992Q1146.0240000000001 616.352 1144.176 618.284Q1142.328 620.216 1138.968 620.216Z M1239.9360000000001 633.152Q1247.6640000000002 633.152 1255.98 634.664Q1264.296 636.1759999999999 1269.3360000000002 639.032Q1270.8480000000002 639.872 1271.268 640.544Q1271.688 641.216 1271.8560000000002 643.064L1273.7040000000002 661.88Q1273.7040000000002 662.216 1272.864 662.4680000000001Q1272.0240000000001 662.72 1271.8560000000002 662.048Q1267.9920000000002 648.44 1257.7440000000001 642.644Q1247.496 636.848 1233.384 636.848Q1220.448 636.848 1210.9560000000001 642.476Q1201.4640000000002 648.104 1196.2560000000003 658.268Q1191.0480000000002 668.432 1191.0480000000002 682.04Q1191.0480000000002 693.968 1194.7440000000001 704.468Q1198.44 714.968 1205.076 722.864Q1211.7120000000002 730.76 1220.364 735.212Q1229.016 739.664 1238.7600000000002 739.664Q1250.5200000000002 739.664 1259.5080000000003 733.1959999999999Q1268.496 726.728 1273.3680000000002 712.616Q1273.536 711.944 1274.46 712.1959999999999Q1275.384 712.448 1275.384 712.784L1273.0320000000002 731.768Q1272.6960000000001 733.784 1272.2760000000003 734.3720000000001Q1271.8560000000002 734.96 1270.344 735.632Q1262.2800000000002 738.992 1254.384 740.5039999999999Q1246.488 742.016 1238.4240000000002 742.016Q1222.4640000000002 742.016 1211.0400000000002 737.06Q1199.6160000000002 732.104 1192.3920000000003 723.956Q1185.1680000000001 715.808 1181.808 705.98Q1178.448 696.152 1178.448 686.576Q1178.448 674.48 1183.488 664.736Q1188.528 654.992 1197.2640000000001 647.9359999999999Q1206.0000000000002 640.88 1217.0040000000001 637.0160000000001Q1228.008 633.152 1239.9360000000001 633.152ZM1235.5680000000002 740.336Q1233.7200000000003 746.216 1233.4680000000003 748.988Q1233.2160000000001 751.76 1234.98 753.188Q1236.7440000000001 754.616 1240.776 757.136Q1244.304 759.152 1247.076 762.176Q1249.8480000000002 765.2 1249.8480000000002 770.072Q1249.8480000000002 773.6 1248.0840000000003 777.296Q1246.3200000000002 780.992 1242.4560000000001 783.596Q1238.592 786.2 1232.3760000000002 786.2Q1227.8400000000001 786.2 1224.7320000000002 784.604Q1221.6240000000003 783.008 1221.6240000000003 779.816Q1221.6240000000003 777.464 1223.1360000000002 776.12Q1224.6480000000001 774.776 1226.6640000000002 774.776Q1229.016 774.776 1230.0240000000001 775.952Q1231.0320000000002 777.128 1231.7040000000002 778.808Q1232.3760000000002 780.488 1233.6360000000002 781.664Q1234.8960000000002 782.84 1237.7520000000002 782.84Q1243.4640000000002 782.84 1243.4640000000002 776.456Q1243.4640000000002 772.088 1240.3560000000002 768.644Q1237.2480000000003 765.2 1229.016 760.832Q1226.832 759.656 1226.6640000000002 758.9Q1226.496 758.144 1227.5040000000001 755.792Q1228.8480000000002 752.6 1229.5200000000002 750.752Q1230.1920000000002 748.904 1231.0320000000002 746.72Q1231.872 744.536 1233.3840000000002 740.168Z M1319.4 726.392Q1319.4 731.264 1320.4080000000001 733.784Q1321.4160000000002 736.304 1324.5240000000001 737.144Q1327.632 737.984 1333.68 737.984Q1334.184 737.984 1334.184 738.992Q1334.184 740.0 1333.68 740.0Q1329.6480000000001 740.0 1324.692 739.832Q1319.736 739.664 1313.688 739.664Q1308.144 739.664 1303.02 739.832Q1297.8960000000002 740.0 1293.864 740.0Q1293.3600000000001 740.0 1293.3600000000001 738.992Q1293.3600000000001 737.984 1293.864 737.984Q1299.912 737.984 1303.104 737.144Q1306.296 736.304 1307.304 733.784Q1308.3120000000001 731.264 1308.3120000000001 726.392V648.608Q1308.3120000000001 643.736 1307.304 641.3Q1306.296 638.864 1303.104 637.94Q1299.912 637.016 1293.864 637.016Q1293.3600000000001 637.016 1293.3600000000001 636.008Q1293.3600000000001 635.0 1293.864 635.0Q1297.8960000000002 635.0 1303.02 635.252Q1308.144 635.504 1313.688 635.504Q1319.736 635.504 1324.776 635.252Q1329.816 635.0 1333.68 635.0Q1334.184 635.0 1334.184 636.008Q1334.184 637.016 1333.68 637.016Q1327.632 637.016 1324.5240000000001 638.024Q1321.4160000000002 639.032 1320.4080000000001 641.552Q1319.4 644.072 1319.4 648.944ZM1313.856 620.216Q1310.328 620.216 1308.396 618.284Q1306.464 616.352 1306.464 612.992Q1306.464 609.8 1308.396 607.8679999999999Q1310.328 605.9359999999999 1313.856 605.9359999999999Q1317.216 605.9359999999999 1319.0639999999999 607.8679999999999Q1320.912 609.8 1320.912 612.992Q1320.912 616.352 1319.0639999999999 618.284Q1317.216 620.216 1313.856 620.216Z M1443.048 740.672Q1438.176 740.672 1431.036 740.168Q1423.896 739.664 1417.848 739.664Q1412.304 739.664 1407.18 739.832Q1402.056 740.0 1398.0240000000001 740.0Q1397.688 740.0 1397.688 738.992Q1397.688 737.984 1398.0240000000001 737.984Q1404.0720000000001 737.984 1407.2640000000001 737.144Q1410.456 736.304 1411.464 733.784Q1412.472 731.264 1412.472 726.392V648.608Q1412.472 643.736 1411.464 641.3Q1410.456 638.864 1407.348 637.94Q1404.24 637.016 1398.192 637.016Q1397.856 637.016 1397.856 636.008Q1397.856 635.0 1398.192 635.0Q1402.224 635.0 1407.2640000000001 635.252Q1412.304 635.504 1417.848 635.504Q1423.392 635.504 1429.776 635.0840000000001Q1436.16 634.664 1440.696 634.664Q1458.504 634.664 1471.86 641.384Q1485.216 648.104 1492.608 659.696Q1500.0 671.288 1500.0 685.736Q1500.0 698.336 1495.548 708.5Q1491.096 718.664 1483.116 725.804Q1475.136 732.944 1464.804 736.808Q1454.472 740.672 1443.048 740.672ZM1441.368 738.152Q1454.808 738.152 1465.056 732.524Q1475.304 726.896 1481.268 715.976Q1487.232 705.056 1487.232 689.432Q1487.232 674.816 1481.688 662.972Q1476.144 651.128 1466.1480000000001 644.156Q1456.152 637.184 1442.208 637.184Q1432.128 637.184 1427.76 639.2Q1423.392 641.216 1423.392 648.944V724.544Q1423.392 731.6 1426.836 734.876Q1430.28 738.152 1441.368 738.152Z M1545.0240000000001 726.392Q1545.0240000000001 731.264 1546.0320000000002 733.784Q1547.0400000000002 736.304 1550.1480000000001 737.144Q1553.256 737.984 1559.304 737.984Q1559.808 737.984 1559.808 738.992Q1559.808 740.0 1559.304 740.0Q1555.2720000000002 740.0 1550.3160000000003 739.832Q1545.3600000000001 739.664 1539.3120000000001 739.664Q1533.768 739.664 1528.6440000000002 739.832Q1523.5200000000002 740.0 1519.488 740.0Q1518.9840000000002 740.0 1518.9840000000002 738.992Q1518.9840000000002 737.984 1519.488 737.984Q1525.536 737.984 1528.728 737.144Q1531.92 736.304 1532.928 733.784Q1533.9360000000001 731.264 1533.9360000000001 726.392V648.608Q1533.9360000000001 643.736 1532.928 641.3Q1531.92 638.864 1528.728 637.94Q1525.536 637.016 1519.488 637.016Q1518.9840000000002 637.016 1518.9840000000002 636.008Q1518.9840000000002 635.0 1519.488 635.0Q1523.5200000000002 635.0 1528.6440000000002 635.252Q1533.768 635.504 1539.3120000000001 635.504Q1545.3600000000001 635.504 1550.4 635.252Q1555.44 635.0 1559.304 635.0Q1559.808 635.0 1559.808 636.008Q1559.808 637.016 1559.304 637.016Q1553.256 637.016 1550.1480000000001 638.024Q1547.0400000000002 639.032 1546.0320000000002 641.552Q1545.0240000000001 644.072 1545.0240000000001 648.944ZM1539.48 620.216Q1535.952 620.216 1534.02 618.284Q1532.088 616.352 1532.088 612.992Q1532.088 609.8 1534.02 607.8679999999999Q1535.952 605.9359999999999 1539.48 605.9359999999999Q1542.84 605.9359999999999 1544.688 607.8679999999999Q1546.536 609.8 1546.536 612.992Q1546.536 616.352 1544.688 618.284Q1542.84 620.216 1539.48 620.216Z M1595.088 654.656Q1595.088 661.544 1598.5320000000002 666.5Q1601.976 671.456 1607.352 675.152Q1612.728 678.848 1618.776 682.544Q1624.992 686.072 1630.788 690.104Q1636.584 694.136 1640.364 699.6800000000001Q1644.144 705.224 1644.144 713.288Q1644.144 721.352 1640.112 727.8199999999999Q1636.0800000000002 734.288 1628.4360000000001 738.152Q1620.7920000000001 742.016 1609.536 742.016Q1605.5040000000001 742.016 1601.556 741.428Q1597.6080000000002 740.84 1593.66 739.4960000000001Q1589.712 738.152 1585.848 736.136Q1585.008 735.632 1584.756 734.876Q1584.5040000000001 734.12 1584.336 732.944L1582.152 710.096Q1581.9840000000002 709.256 1582.9080000000001 709.172Q1583.832 709.088 1584.0 709.76Q1585.1760000000002 714.8 1587.3600000000001 720.008Q1589.544 725.216 1593.0720000000001 729.5840000000001Q1596.6000000000001 733.952 1601.64 736.64Q1606.68 739.328 1613.4 739.328Q1618.2720000000002 739.328 1622.8920000000003 737.48Q1627.5120000000002 735.632 1630.4520000000002 731.432Q1633.392 727.232 1633.392 720.008Q1633.392 711.776 1629.7800000000002 706.316Q1626.1680000000001 700.856 1620.6240000000003 696.8240000000001Q1615.0800000000002 692.792 1608.864 689.264Q1602.9840000000002 685.568 1597.5240000000001 681.704Q1592.064 677.84 1588.6200000000001 672.548Q1585.1760000000002 667.256 1585.1760000000002 659.36Q1585.1760000000002 650.456 1589.712 644.6600000000001Q1594.248 638.864 1601.4720000000002 636.008Q1608.6960000000001 633.152 1616.424 633.152Q1621.1280000000002 633.152 1626.1680000000001 634.076Q1631.208 635.0 1636.0800000000002 637.184Q1637.424 637.688 1638.0120000000002 638.444Q1638.6000000000001 639.2 1638.6000000000001 640.04L1639.776 659.192Q1639.776 659.864 1638.9360000000001 659.9480000000001Q1638.096 660.032 1637.76 659.36Q1637.424 656.0 1635.912 651.884Q1634.4 647.768 1631.544 644.072Q1628.688 640.376 1624.3200000000002 638.024Q1619.952 635.672 1613.736 635.672Q1607.184 635.672 1603.068 638.444Q1598.952 641.216 1597.02 645.5Q1595.088 649.784 1595.088 654.656ZM1614.912 740.336Q1613.064 746.216 1612.812 748.988Q1612.56 751.76 1614.324 753.188Q1616.088 754.616 1620.12 757.136Q1623.648 759.152 1626.42 762.176Q1629.192 765.2 1629.192 770.072Q1629.192 773.6 1627.4279999999999 777.296Q1625.664 780.992 1621.8 783.596Q1617.936 786.2 1611.72 786.2Q1607.184 786.2 1604.076 784.604Q1600.968 783.008 1600.968 779.816Q1600.968 777.464 1602.48 776.12Q1603.992 774.776 1606.008 774.776Q1608.36 774.776 1609.368 775.952Q1610.376 777.128 1611.048 778.808Q1611.72 780.488 1612.98 781.664Q1614.24 782.84 1617.096 782.84Q1622.808 782.84 1622.808 776.456Q1622.808 772.088 1619.7 768.644Q1616.592 765.2 1608.36 760.832Q1606.176 759.656 1606.0079999999998 758.9Q1605.84 758.144 1606.848 755.792Q1608.192 752.6 1608.864 750.752Q1609.536 748.904 1610.376 746.72Q1611.216 744.536 1612.728 740.168Z"/></svg>